<svg width="121" height="34" viewBox="0 0 121 34" fill="none" xmlns="http://www.w3.org/2000/svg">
<path fill-rule="evenodd" clip-rule="evenodd" d="M56.4572 12.4582H59.9461V25.8772H56.4572V12.4582ZM55.9473 8.67406C55.9473 8.1552 56.1351 7.71684 56.5109 7.35901C56.9045 6.98328 57.4412 6.79541 58.1211 6.79541C58.801 6.79541 59.3467 6.98328 59.7582 7.35901C60.1877 7.71684 60.4024 8.1552 60.4024 8.67406C60.4024 9.19293 60.1877 9.63128 59.7582 9.98912C59.3467 10.3291 58.801 10.499 58.1211 10.499C57.4412 10.499 56.9045 10.3291 56.5109 9.98912C56.1351 9.63128 55.9473 9.19293 55.9473 8.67406ZM76.7443 12.4582H80.2332V25.8772H76.7443V12.4582ZM76.2344 8.67406C76.2344 8.1552 76.4222 7.71684 76.798 7.35901C77.1916 6.98328 77.7283 6.79541 78.4082 6.79541C79.0881 6.79541 79.6338 6.98328 80.0453 7.35901C80.4748 7.71684 80.6895 8.1552 80.6895 8.67406C80.6895 9.19293 80.4748 9.63128 80.0453 9.98912C79.6338 10.3291 79.0881 10.499 78.4082 10.499C77.7283 10.499 77.1916 10.3291 76.798 9.98912C76.4222 9.63128 76.2344 9.19293 76.2344 8.67406ZM104.894 21.7174H110.664L112.167 25.8773H116.032L109.269 6.95654H106.558L99.7949 25.8773H103.472L104.894 21.7174ZM109.859 18.7652H105.833L107.202 14.6053L107.766 11.6263H107.9L108.464 14.5785L109.859 18.7652ZM120.997 7.09082H117.32V25.8774H120.997V7.09082ZM95.0232 24.1058C95.0232 23.4796 95.22 22.9875 95.6137 22.6297C96.0073 22.254 96.5262 22.0661 97.1703 22.0661C97.8502 22.0661 98.3869 22.254 98.7805 22.6297C99.1742 22.9875 99.371 23.4796 99.371 24.1058C99.371 24.732 99.1742 25.233 98.7805 25.6087C98.3869 25.9844 97.8502 26.1723 97.1703 26.1723C96.5262 26.1723 96.0073 25.9844 95.6137 25.6087C95.22 25.233 95.0232 24.732 95.0232 24.1058ZM86.4401 20.3219H87.3794L90.6537 25.8774H94.6525L91.0294 19.6241L89.5533 18.5774L90.922 17.5576L94.1426 12.4584H90.3048L87.2452 17.7991L86.4401 18.1749V7.09082H82.9512V25.8774H86.4401V20.3219ZM65.2117 12.4583H62.6621V31.2448H66.151V25.743C66.5089 25.9219 66.8667 26.0472 67.2246 26.1187C67.5824 26.2082 68.0386 26.2529 68.5933 26.2529C69.5773 26.2529 70.4451 26.083 71.1966 25.743C71.9659 25.4031 72.61 24.911 73.1289 24.2669C73.6657 23.6228 74.0682 22.8445 74.3366 21.932C74.605 21.0017 74.7392 19.9639 74.7392 18.8188C74.7392 16.4571 74.3187 14.7484 73.4778 13.6928C72.6369 12.6193 71.3755 12.0825 69.6936 12.0825C68.7812 12.0825 68.0029 12.2435 67.3587 12.5656C66.7325 12.8877 66.1868 13.3886 65.7216 14.0685H65.6143L65.2117 12.4583ZM67.0367 15.5446C67.4303 15.2047 67.9671 15.0347 68.647 15.0347C69.5237 15.0347 70.1588 15.3567 70.5525 16.0009C70.9461 16.645 71.1429 17.5575 71.1429 18.7383C71.1429 20.3665 70.8924 21.5384 70.3914 22.2541C69.8905 22.9519 69.139 23.3008 68.137 23.3008C67.654 23.3008 67.2603 23.2471 66.9562 23.1397C66.6699 23.0145 66.4015 22.8535 66.151 22.6567V17.0744C66.3657 16.3945 66.661 15.8846 67.0367 15.5446ZM42.1197 7.09071C41.6546 7.14438 41.2162 7.207 40.8047 7.27857V25.8772H44.4815V18.1748L46.4138 18.5237L50.681 25.8772H54.9214L50.6274 18.7115L49.3123 17.8795C50.5111 17.5038 51.4683 16.8329 52.184 15.8667C52.8996 14.9005 53.2575 13.6481 53.2575 12.1094C53.2575 11.0717 53.0517 10.2128 52.6402 9.53296C52.2466 8.83517 51.7098 8.28947 51.0299 7.89584C50.3679 7.50222 49.6075 7.2249 48.7487 7.06387C47.9078 6.90284 47.049 6.82233 46.1723 6.82233C45.7965 6.82233 45.385 6.83127 44.9377 6.84916C44.4904 6.86706 44.0252 6.8939 43.5422 6.92968C43.077 6.96546 42.6028 7.01914 42.1197 7.09071ZM45.3135 10.1234C45.6892 10.1055 46.0649 10.0966 46.4406 10.0966C47.4068 10.0966 48.1404 10.3291 48.6414 10.7943C49.1423 11.2416 49.3928 11.8679 49.3928 12.673C49.3928 13.7465 49.0887 14.5159 48.4803 14.9811C47.872 15.4462 47.0579 15.6788 46.0381 15.6788H44.4815V10.2307C44.6783 10.1771 44.9556 10.1413 45.3135 10.1234Z" fill="url(#paint0_linear_1648_13431)"/>
<path fill-rule="evenodd" clip-rule="evenodd" d="M24.7286 0.542662L3.92686 0.0120047C2.61791 -0.0941266 0 0.457757 0 3.51434V31.2146C0 31.6038 0.16981 32.467 0.849051 32.8066C1.6981 33.2311 2.22876 32.7005 2.75942 32.0637C3.18394 31.5543 18.29 12.5355 25.7899 3.08982C26.3206 2.26333 26.8512 0.59681 24.7286 0.542662ZM9.1269 15.5071C11.3543 15.5071 13.1599 13.3213 13.1599 10.625C13.1599 7.92877 11.3543 5.743 9.1269 5.743C6.89954 5.743 5.09391 7.92877 5.09391 10.625C5.09391 13.3213 6.89954 15.5071 9.1269 15.5071Z" fill="url(#paint1_linear_1648_13431)"/>
<path d="M26.7529 25.3145L19.1084 16.2703L13.6172 23.2688C15.627 25.6375 19.7974 30.5473 20.4004 31.2364C21.1541 32.0977 23.6305 33.8205 26.3222 31.2364C28.4756 29.1691 27.5066 26.4271 26.7529 25.3145Z" fill="url(#paint2_linear_1648_13431)"/>
<path d="M28.6904 25.3145L21.0459 16.2703L15.5547 23.2688C17.5645 25.6375 21.7349 30.5473 22.3379 31.2364C23.0916 32.0977 25.568 33.8205 28.2597 31.2364C30.4131 29.1691 29.4441 26.4271 28.6904 25.3145Z" fill="url(#paint3_linear_1648_13431)"/>
<path d="M19.1084 16.2703H21.0464L15.5552 23.2688H13.6172L19.1084 16.2703Z" fill="url(#paint4_linear_1648_13431)"/>
<path fill-rule="evenodd" clip-rule="evenodd" d="M26.644 0.550528L5.54067 0.0121788C4.21274 -0.0954911 1.55688 0.464392 1.55688 3.56528V31.6671C1.55688 32.0619 1.72916 32.9376 2.41824 33.2822C3.2796 33.7128 3.81795 33.1745 4.3563 32.5285C4.78698 32.0117 20.112 12.7172 27.7207 3.13461C28.259 2.29614 28.7974 0.605462 26.644 0.550528ZM10.8165 15.732C13.0762 15.732 14.908 13.5146 14.908 10.7792C14.908 8.04385 13.0762 5.8264 10.8165 5.8264C8.55686 5.8264 6.72505 8.04385 6.72505 10.7792C6.72505 13.5146 8.55686 15.732 10.8165 15.732Z" fill="url(#paint5_linear_1648_13431)"/>
<defs>
<linearGradient id="paint0_linear_1648_13431" x1="40.6774" y1="19.0794" x2="121.005" y2="21.7965" gradientUnits="userSpaceOnUse">
<stop stop-color="#1E4396"/>
<stop offset="1" stop-color="#3EB5E7"/>
</linearGradient>
<linearGradient id="paint1_linear_1648_13431" x1="5.20044" y1="-0.518647" x2="1.59197" y2="29.4104" gradientUnits="userSpaceOnUse">
<stop stop-color="#70CDE7"/>
<stop offset="1" stop-color="#579CC3"/>
</linearGradient>
<linearGradient id="paint2_linear_1648_13431" x1="15.9859" y1="22.6228" x2="25.1379" y2="32.5284" gradientUnits="userSpaceOnUse">
<stop stop-color="#2E3085"/>
<stop offset="1" stop-color="#48A1D9"/>
</linearGradient>
<linearGradient id="paint3_linear_1648_13431" x1="17.9234" y1="22.6228" x2="27.0754" y2="32.5284" gradientUnits="userSpaceOnUse">
<stop stop-color="#1E4396"/>
<stop offset="1" stop-color="#3EB5E7"/>
</linearGradient>
<linearGradient id="paint4_linear_1648_13431" x1="17.7086" y1="20.7924" x2="16.2013" y2="19.5004" gradientUnits="userSpaceOnUse">
<stop stop-color="#202475"/>
<stop offset="1" stop-color="#3B53A0"/>
</linearGradient>
<linearGradient id="paint5_linear_1648_13431" x1="2.52591" y1="0.981213" x2="18.0304" y2="15.409" gradientUnits="userSpaceOnUse">
<stop stop-color="#1E4396"/>
<stop offset="1" stop-color="#3EB5E7"/>
</linearGradient>
</defs>
</svg>
